<svg width="198" height="73" viewBox="0 0 198 73" fill="none" xmlns="http://www.w3.org/2000/svg">
<path d="M18.7051 40.848H8.56667V51.7834H0V23.1752H8.57047V33.2987H18.7089V23.1752H27.2794V51.7834H18.7089V40.848H18.7051Z" fill="white"/>
<path d="M30.2021 31.0669H37.8364V51.7833H30.2021V31.0669Z" fill="white"/>
<path d="M40.5918 31.0669H48.2261V33.4256C49.4972 31.9249 52.1726 30.5513 54.5055 30.5513V37.9275C54.1249 37.8005 53.4856 37.712 52.7663 37.712C51.1565 37.712 49.0747 38.1391 48.2261 39.1703V51.7794H40.5918V31.063V31.0669Z" fill="white"/>
<path d="M65.4086 30.5552C71.433 30.5552 76.0569 34.9301 76.0569 42.2216V43.8069H62.1432C62.5695 45.1382 64.0537 46.4234 66.6416 46.4234C68.3808 46.4234 70.2456 45.7808 71.2656 44.9651L74.4053 49.7248C72.3692 51.4832 68.7195 52.299 65.6673 52.299C59.2623 52.299 54.2578 48.2242 54.2578 41.4059C54.2578 35.3995 58.798 30.5552 65.4124 30.5552H65.4086ZM62.0557 38.9164H68.7994C68.5863 38.016 67.867 36.4307 65.4048 36.4307C63.0718 36.4307 62.3069 37.9737 62.0519 38.9164H62.0557Z" fill="white"/>
<path d="M108.098 33.7258L101.776 51.7834H97.9591L91.6379 33.7258V51.7834H83.0674V23.1752H94.9032L99.8658 37.7582L104.828 23.1752H116.664V51.7834H108.094V33.7258H108.098Z" fill="#9CDE47"/>
<path d="M129.345 30.5552C135.369 30.5552 139.993 34.9301 139.993 42.2216V43.8069H126.08C126.502 45.1382 127.99 46.4234 130.574 46.4234C132.313 46.4234 134.178 45.7808 135.198 44.9651L138.338 49.7248C136.302 51.4832 132.652 52.299 129.6 52.299C123.195 52.299 118.19 48.2242 118.19 41.4059C118.19 35.3995 122.731 30.5552 129.349 30.5552H129.345ZM125.992 38.9164H132.736C132.523 38.016 131.803 36.4307 129.341 36.4307C127.008 36.4307 126.243 37.9737 125.988 38.9164H125.992Z" fill="#9CDE47"/>
<path d="M145.793 23.1751H154.489V39.7282C154.489 42.4717 155.89 44.6611 159.41 44.6611C162.93 44.6611 164.289 42.4717 164.289 39.7282V23.1751H172.985V39.986C172.985 47.1044 168.955 52.2951 159.41 52.2951C149.865 52.2951 145.793 47.1044 145.793 40.0284V23.1713V23.1751Z" fill="white"/>
<path d="M34.0193 28.6351C36.1274 28.6351 37.8364 26.9073 37.8364 24.7758C37.8364 22.6444 36.1274 20.9165 34.0193 20.9165C31.9111 20.9165 30.2021 22.6444 30.2021 24.7758C30.2021 26.9073 31.9111 28.6351 34.0193 28.6351Z" fill="white"/>
<path d="M175.604 60.1907V31.5825H183.238V33.768C184.893 31.7941 186.887 31.0669 189.007 31.0669C194.099 31.0669 198 34.8416 198 41.9176C198 48.9937 194.099 52.8107 189.007 52.8107C186.887 52.8107 184.935 52.0796 183.238 50.1095V60.1869H175.604V60.1907ZM186.377 37.889C185.403 37.889 183.961 38.4046 183.238 39.305V44.5803C183.915 45.4383 185.399 45.9963 186.377 45.9963C188.414 45.9963 190.195 44.538 190.195 41.9215C190.195 39.305 188.414 37.889 186.377 37.889Z" fill="white"/>
<path d="M78.3826 15.8221H73.8994V0H89.5485V4.53653H78.3826V15.8221Z" fill="#9CDE47"/>
<path d="M145.786 73H130.133V68.4674H141.299V57.178H145.786V73Z" fill="#9CDE47"/>
<path d="M89.5485 73H73.8994V57.178H78.3826V68.4674H89.5485V73Z" fill="#9CDE47"/>
<path d="M145.786 15.8221H141.299V4.53653H130.133V0H145.786V15.8221Z" fill="#9CDE47"/>
<path d="M130.132 20.3625C132.613 20.3625 134.623 18.3297 134.623 15.8221C134.623 13.3145 132.613 11.2817 130.132 11.2817C127.652 11.2817 125.642 13.3145 125.642 15.8221C125.642 18.3297 127.652 20.3625 130.132 20.3625Z" fill="#CB171A"/>
</svg>
