<svg width="198" height="73" viewBox="0 0 198 73" fill="none" xmlns="http://www.w3.org/2000/svg">
<path d="M18.7051 40.848H8.56667V51.7834H0V23.1752H8.57047V33.2987H18.7089V23.1752H27.2794V51.7834H18.7089V40.848H18.7051Z" fill="#211B43"/>
<path d="M30.2022 31.067H37.8364V51.7834H30.2022V31.067Z" fill="#211B43"/>
<path d="M40.5918 31.067H48.226V33.4257C49.4971 31.925 52.1726 30.5514 54.5055 30.5514V37.9276C54.1249 37.8006 53.4855 37.7121 52.7663 37.7121C51.1564 37.7121 49.0747 38.1392 48.226 39.1704V51.7796H40.5918V31.0631V31.067Z" fill="#211B43"/>
<path d="M65.4088 30.5552C71.4333 30.5552 76.0572 34.9302 76.0572 42.2217V43.807H62.1435C62.5698 45.1383 64.054 46.4235 66.6419 46.4235C68.3811 46.4235 70.2459 45.7809 71.2658 44.9652L74.4056 49.7249C72.3695 51.4833 68.7198 52.299 65.6676 52.299C59.2626 52.299 54.2581 48.2242 54.2581 41.406C54.2581 35.3996 58.7983 30.5552 65.4127 30.5552H65.4088ZM62.056 38.9165H68.7997C68.5866 38.0161 67.8673 36.4308 65.405 36.4308C63.0721 36.4308 62.3072 37.9737 62.0522 38.9165H62.056Z" fill="#211B43"/>
<path d="M108.098 33.7258L101.776 51.7834H97.9591L91.6378 33.7258V51.7834H83.0674V23.1752H94.9031L99.8658 37.7582L104.828 23.1752H116.664V51.7834H108.094V33.7258H108.098Z" fill="#8759F2"/>
<path d="M129.345 30.5552C135.369 30.5552 139.993 34.9302 139.993 42.2217V43.807H126.08C126.502 45.1383 127.99 46.4235 130.574 46.4235C132.313 46.4235 134.178 45.7809 135.198 44.9652L138.338 49.7249C136.302 51.4833 132.652 52.299 129.6 52.299C123.195 52.299 118.19 48.2242 118.19 41.406C118.19 35.3996 122.731 30.5552 129.349 30.5552H129.345ZM125.992 38.9165H132.736C132.523 38.0161 131.803 36.4308 129.341 36.4308C127.008 36.4308 126.243 37.9737 125.988 38.9165H125.992Z" fill="#8759F2"/>
<path d="M145.793 23.1752H154.489V39.7283C154.489 42.4718 155.89 44.6612 159.41 44.6612C162.93 44.6612 164.289 42.4718 164.289 39.7283V23.1752H172.985V39.9861C172.985 47.1045 168.955 52.2951 159.41 52.2951C149.865 52.2951 145.793 47.1045 145.793 40.0284V23.1713V23.1752Z" fill="#211B43"/>
<path d="M34.0193 28.6351C36.1274 28.6351 37.8364 26.9073 37.8364 24.7758C37.8364 22.6444 36.1274 20.9165 34.0193 20.9165C31.9112 20.9165 30.2022 22.6444 30.2022 24.7758C30.2022 26.9073 31.9112 28.6351 34.0193 28.6351Z" fill="#211B43"/>
<path d="M175.603 60.1908V31.5826H183.238V33.7681C184.893 31.7942 186.887 31.067 189.007 31.067C194.099 31.067 198 34.8416 198 41.9177C198 48.9937 194.099 52.8107 189.007 52.8107C186.887 52.8107 184.935 52.0797 183.238 50.1096V60.1869H175.603V60.1908ZM186.377 37.8891C185.403 37.8891 183.961 38.4047 183.238 39.305V44.5803C183.915 45.4384 185.399 45.9963 186.377 45.9963C188.413 45.9963 190.194 44.538 190.194 41.9215C190.194 39.305 188.413 37.8891 186.377 37.8891Z" fill="#211B43"/>
<path d="M78.3825 15.8221H73.8994V0H89.5485V4.53653H78.3825V15.8221Z" fill="#8759F2"/>
<path d="M145.786 73H130.133V68.4674H141.299V57.178H145.786V73Z" fill="#8759F2"/>
<path d="M89.5485 73H73.8994V57.178H78.3825V68.4674H89.5485V73Z" fill="#8759F2"/>
<path d="M145.786 15.8221H141.299V4.53653H130.133V0H145.786V15.8221Z" fill="#8759F2"/>
<path d="M130.133 20.3624C132.613 20.3624 134.623 18.3296 134.623 15.8221C134.623 13.3145 132.613 11.2817 130.133 11.2817C127.653 11.2817 125.642 13.3145 125.642 15.8221C125.642 18.3296 127.653 20.3624 130.133 20.3624Z" fill="#CB171A"/>
</svg>
